solid OpenSCAD_Model
  facet normal -1 0 0
    outer loop
      vertex 0 0 0
      vertex 0 0 3
      vertex 0 10 0
    endloop
  endfacet
  facet normal -1 0 0
    outer loop
      vertex 0 10 0
      vertex 0 0 3
      vertex 0 10 3
    endloop
  endfacet
  facet normal 0 -1 0
    outer loop
      vertex 0 0 3
      vertex 0 0 0
      vertex 30 0 0
    endloop
  endfacet
  facet normal 0 -1 0
    outer loop
      vertex 30 0 3
      vertex 0 0 3
      vertex 30 0 0
    endloop
  endfacet
  facet normal 0 0 -1
    outer loop
      vertex 6.8 6.38564 0
      vertex 0 10 0
      vertex 30 0 0
    endloop
  endfacet
  facet normal 0 0 -1
    outer loop
      vertex 23.2 6.38564 0
      vertex 0 10 0
      vertex 30 10 0
    endloop
  endfacet
  facet normal 0 0 -1
    outer loop
      vertex 0 0 0
      vertex 0 10 0
      vertex 4.4 5 0
    endloop
  endfacet
  facet normal 0 0 -1
    outer loop
      vertex 0 0 0
      vertex 4.4 5 0
      vertex 5.2 3.61436 0
    endloop
  endfacet
  facet normal 0 0 -1
    outer loop
      vertex 0 0 0
      vertex 5.2 3.61436 0
      vertex 30 0 0
    endloop
  endfacet
  facet normal 0 0 -1
    outer loop
      vertex 5.2 3.61436 0
      vertex 6.8 3.61436 0
      vertex 30 0 0
    endloop
  endfacet
  facet normal 0 0 -1
    outer loop
      vertex 24.8 3.61436 0
      vertex 30 0 0
      vertex 23.2 3.61436 0
    endloop
  endfacet
  facet normal 0 0 -1
    outer loop
      vertex 5.2 6.38564 0
      vertex 0 10 0
      vertex 6.8 6.38564 0
    endloop
  endfacet
  facet normal 0 0 -1
    outer loop
      vertex 7.6 5 0
      vertex 6.8 6.38564 0
      vertex 30 0 0
    endloop
  endfacet
  facet normal 0 0 -1
    outer loop
      vertex 4.4 5 0
      vertex 0 10 0
      vertex 5.2 6.38564 0
    endloop
  endfacet
  facet normal 0 0 -1
    outer loop
      vertex 23.2 3.61436 0
      vertex 0 10 0
      vertex 22.4 5 0
    endloop
  endfacet
  facet normal 0 0 -1
    outer loop
      vertex 30 0 0
      vertex 0 10 0
      vertex 23.2 3.61436 0
    endloop
  endfacet
  facet normal 0 0 -1
    outer loop
      vertex 23.2 6.38564 0
      vertex 30 10 0
      vertex 24.8 6.38564 0
    endloop
  endfacet
  facet normal 0 0 -1
    outer loop
      vertex 30 0 0
      vertex 24.8 3.61436 0
      vertex 30 10 0
    endloop
  endfacet
  facet normal 0 0 -1
    outer loop
      vertex 24.8 3.61436 0
      vertex 25.6 5 0
      vertex 30 10 0
    endloop
  endfacet
  facet normal 0 0 -1
    outer loop
      vertex 25.6 5 0
      vertex 24.8 6.38564 0
      vertex 30 10 0
    endloop
  endfacet
  facet normal 0 0 -1
    outer loop
      vertex 22.4 5 0
      vertex 0 10 0
      vertex 23.2 6.38564 0
    endloop
  endfacet
  facet normal 0 0 -1
    outer loop
      vertex 7.6 5 0
      vertex 30 0 0
      vertex 6.8 3.61436 0
    endloop
  endfacet
  facet normal 0 1 0
    outer loop
      vertex 0 10 0
      vertex 0 10 3
      vertex 30 10 0
    endloop
  endfacet
  facet normal 0 1 0
    outer loop
      vertex 30 10 0
      vertex 0 10 3
      vertex 30 10 3
    endloop
  endfacet
  facet normal 0 0 1
    outer loop
      vertex 5.2 3.61436 3
      vertex 0 0 3
      vertex 30 0 3
    endloop
  endfacet
  facet normal 0 0 1
    outer loop
      vertex 23.2 3.61436 3
      vertex 0 10 3
      vertex 30 0 3
    endloop
  endfacet
  facet normal 0 0 1
    outer loop
      vertex 6.8 3.61436 3
      vertex 5.2 3.61436 3
      vertex 30 0 3
    endloop
  endfacet
  facet normal 0 0 1
    outer loop
      vertex 0 10 3
      vertex 0 0 3
      vertex 5.2 3.61436 3
    endloop
  endfacet
  facet normal 0 0 1
    outer loop
      vertex 23.2 6.38564 3
      vertex 24.8 6.38564 3
      vertex 30 10 3
    endloop
  endfacet
  facet normal 0 0 1
    outer loop
      vertex 0 10 3
      vertex 5.2 3.61436 3
      vertex 4.4 5 3
    endloop
  endfacet
  facet normal 0 0 1
    outer loop
      vertex 7.6 5 3
      vertex 6.8 3.61436 3
      vertex 30 0 3
    endloop
  endfacet
  facet normal 0 0 1
    outer loop
      vertex 0 10 3
      vertex 4.4 5 3
      vertex 5.2 6.38564 3
    endloop
  endfacet
  facet normal 0 0 1
    outer loop
      vertex 0 10 3
      vertex 6.8 6.38564 3
      vertex 30 0 3
    endloop
  endfacet
  facet normal 0 0 1
    outer loop
      vertex 0 10 3
      vertex 5.2 6.38564 3
      vertex 6.8 6.38564 3
    endloop
  endfacet
  facet normal 0 0 1
    outer loop
      vertex 24.8 3.61436 3
      vertex 23.2 3.61436 3
      vertex 30 0 3
    endloop
  endfacet
  facet normal 0 0 1
    outer loop
      vertex 22.4 5 3
      vertex 0 10 3
      vertex 23.2 3.61436 3
    endloop
  endfacet
  facet normal 0 0 1
    outer loop
      vertex 23.2 6.38564 3
      vertex 0 10 3
      vertex 22.4 5 3
    endloop
  endfacet
  facet normal 0 0 1
    outer loop
      vertex 24.8 6.38564 3
      vertex 25.6 5 3
      vertex 30 10 3
    endloop
  endfacet
  facet normal 0 0 1
    outer loop
      vertex 30 10 3
      vertex 0 10 3
      vertex 23.2 6.38564 3
    endloop
  endfacet
  facet normal 0 0 1
    outer loop
      vertex 30 10 3
      vertex 25.6 5 3
      vertex 30 0 3
    endloop
  endfacet
  facet normal 0 0 1
    outer loop
      vertex 25.6 5 3
      vertex 24.8 3.61436 3
      vertex 30 0 3
    endloop
  endfacet
  facet normal 0 0 1
    outer loop
      vertex 6.8 6.38564 3
      vertex 7.6 5 3
      vertex 30 0 3
    endloop
  endfacet
  facet normal 1 0 0
    outer loop
      vertex 30 0 3
      vertex 30 0 0
      vertex 30 10 0
    endloop
  endfacet
  facet normal 1 0 0
    outer loop
      vertex 30 10 3
      vertex 30 0 3
      vertex 30 10 0
    endloop
  endfacet
  facet normal 0.866025 0.5 0
    outer loop
      vertex 4.4 5 3
      vertex 5.2 3.61436 3
      vertex 5.2 3.61436 0
    endloop
  endfacet
  facet normal 0.866025 0.5 0
    outer loop
      vertex 4.4 5 0
      vertex 4.4 5 3
      vertex 5.2 3.61436 0
    endloop
  endfacet
  facet normal 0.866025 -0.5 0
    outer loop
      vertex 5.2 6.38564 0
      vertex 5.2 6.38564 3
      vertex 4.4 5 3
    endloop
  endfacet
  facet normal 0.866025 -0.5 0
    outer loop
      vertex 4.4 5 0
      vertex 5.2 6.38564 0
      vertex 4.4 5 3
    endloop
  endfacet
  facet normal 0 -1 0
    outer loop
      vertex 6.8 6.38564 0
      vertex 6.8 6.38564 3
      vertex 5.2 6.38564 3
    endloop
  endfacet
  facet normal 0 -1 0
    outer loop
      vertex 5.2 6.38564 0
      vertex 6.8 6.38564 0
      vertex 5.2 6.38564 3
    endloop
  endfacet
  facet normal -0.866025 -0.5 0
    outer loop
      vertex 7.6 5 3
      vertex 6.8 6.38564 3
      vertex 7.6 5 0
    endloop
  endfacet
  facet normal -0.866025 -0.5 0
    outer loop
      vertex 7.6 5 0
      vertex 6.8 6.38564 3
      vertex 6.8 6.38564 0
    endloop
  endfacet
  facet normal -0.866025 0.5 0
    outer loop
      vertex 7.6 5 3
      vertex 7.6 5 0
      vertex 6.8 3.61436 3
    endloop
  endfacet
  facet normal -0.866025 0.5 0
    outer loop
      vertex 6.8 3.61436 3
      vertex 7.6 5 0
      vertex 6.8 3.61436 0
    endloop
  endfacet
  facet normal 0 1 0
    outer loop
      vertex 6.8 3.61436 3
      vertex 6.8 3.61436 0
      vertex 5.2 3.61436 3
    endloop
  endfacet
  facet normal 0 1 0
    outer loop
      vertex 5.2 3.61436 3
      vertex 6.8 3.61436 0
      vertex 5.2 3.61436 0
    endloop
  endfacet
  facet normal 0.866025 0.5 0
    outer loop
      vertex 22.4 5 3
      vertex 23.2 3.61436 3
      vertex 23.2 3.61436 0
    endloop
  endfacet
  facet normal 0.866025 0.5 0
    outer loop
      vertex 22.4 5 0
      vertex 22.4 5 3
      vertex 23.2 3.61436 0
    endloop
  endfacet
  facet normal 0.866025 -0.5 0
    outer loop
      vertex 23.2 6.38564 0
      vertex 23.2 6.38564 3
      vertex 22.4 5 3
    endloop
  endfacet
  facet normal 0.866025 -0.5 0
    outer loop
      vertex 22.4 5 0
      vertex 23.2 6.38564 0
      vertex 22.4 5 3
    endloop
  endfacet
  facet normal 0 -1 0
    outer loop
      vertex 24.8 6.38564 0
      vertex 24.8 6.38564 3
      vertex 23.2 6.38564 3
    endloop
  endfacet
  facet normal 0 -1 0
    outer loop
      vertex 23.2 6.38564 0
      vertex 24.8 6.38564 0
      vertex 23.2 6.38564 3
    endloop
  endfacet
  facet normal -0.866025 -0.5 0
    outer loop
      vertex 25.6 5 3
      vertex 24.8 6.38564 3
      vertex 25.6 5 0
    endloop
  endfacet
  facet normal -0.866025 -0.5 0
    outer loop
      vertex 25.6 5 0
      vertex 24.8 6.38564 3
      vertex 24.8 6.38564 0
    endloop
  endfacet
  facet normal -0.866025 0.5 0
    outer loop
      vertex 25.6 5 3
      vertex 25.6 5 0
      vertex 24.8 3.61436 3
    endloop
  endfacet
  facet normal -0.866025 0.5 0
    outer loop
      vertex 24.8 3.61436 3
      vertex 25.6 5 0
      vertex 24.8 3.61436 0
    endloop
  endfacet
  facet normal 0 1 0
    outer loop
      vertex 24.8 3.61436 3
      vertex 24.8 3.61436 0
      vertex 23.2 3.61436 3
    endloop
  endfacet
  facet normal 0 1 0
    outer loop
      vertex 23.2 3.61436 3
      vertex 24.8 3.61436 0
      vertex 23.2 3.61436 0
    endloop
  endfacet
endsolid OpenSCAD_Model
